<?xml version="1.0" encoding="utf-8"?>
<!-- Generator: Adobe Illustrator 16.0.0, SVG Export Plug-In . SVG Version: 6.00 Build 0)  -->
<!DOCTYPE svg PUBLIC "-//W3C//DTD SVG 1.1//EN" "http://www.w3.org/Graphics/SVG/1.1/DTD/svg11.dtd">
<svg version="1.1" id="Layer_1" xmlns="http://www.w3.org/2000/svg" xmlns:xlink="http://www.w3.org/1999/xlink" x="0px" y="0px"
	 width="158.534px" height="43px" viewBox="0 0 158.534 43" enable-background="new 0 0 158.534 43" xml:space="preserve">
<g>
	<path fill="#FFFFFF" d="M27.415,30.802c0.536,0,0.536-0.323,0.536-0.856v-2.788c0-0.535-0.107-0.753,0.214-0.753
		c1.181,0,1.395-0.104,1.395-1.069V15.037c0-2.788-2.038-2.359-2.467-3.325c-0.75-1.394,1.501-1.394,0.644-4.396
		c-0.214-0.644-0.75-1.072-1.716-1.072c-0.964,0-1.607,0.428-1.715,1.072c-0.857,3.003,1.395,3.003,0.644,4.396
		c-0.537,0.965-2.468,0.537-2.468,3.325v10.294c0,0.966,0.322,1.071,1.396,1.071c0.321,0,0.214,0.216,0.214,0.75v2.791
		c0,0.535-0.107,0.854,0.536,0.854h2.789"/>
	<path fill="#FFFFFF" d="M18.406,8.387c-0.966,1.073-2.574,3.646-1.608,5.684c2.145,0.965,2.037-6.649,4.611-6.542
		c1.287,1.179-0.43,4.826-0.966,6.434c-0.643,1.931-1.18,6.006-2.358,7.936c-0.965,1.608-0.214,6.757-0.537,8.58
		c-0.857,0.965-3.217,0.215-4.29,0.106c0-2.039-0.214-3.647-0.537-6.862c0-0.646-0.75-10.726-0.214-11.906
		c1.181-2.573,7.293-7.292,8.151-8.258c0.75-0.858,3.324-3.539,4.504-3.539c0.75,0.536,0.214,1.608,0.214,2.145
		C24.304,4.527,19.908,6.993,18.406,8.387"/>
	<path fill="#FFFFFF" d="M33.635,8.387c0.964,1.073,2.573,3.646,1.608,5.684c-2.252,0.965-2.038-6.649-4.611-6.542
		c-1.287,1.179,0.429,4.826,0.965,6.434c0.644,1.931,1.18,6.006,2.359,7.936c0.965,1.608,0.215,6.757,0.536,8.58
		c0.965,0.965,3.217,0.215,4.29,0.106c0-2.039,0.214-3.647,0.535-6.862c0.107-0.646,0.75-10.726,0.216-11.906
		c-1.181-2.573-7.293-7.292-8.151-8.258c-0.75-0.858-3.431-3.539-4.396-3.539c-0.75,0.536-0.214,1.608-0.214,2.145
		C27.736,4.527,32.133,6.993,33.635,8.387"/>
	<path fill="#FFFFFF" d="M9.505,5.063C8.862,5.598,7.682,6.028,6.824,7.1C6.502,6.457,7.359,4.955,8.325,4.098
		c0.75-0.537,2.252-1.716,2.681-1.716C11.327,3.025,10.148,4.205,9.505,5.063"/>
	<path fill="#FFFFFF" d="M7.682,9.138c-0.965,0.858-1.931,1.287-3.217,2.896c-0.537-2.038-0.43-3.646-0.107-4.825
		c0.43-1.502,1.181-3.218,2.467-3.647C6.609,4.312,6.18,5.492,6.073,7.1C5.43,9.245,5.107,9.353,5.322,9.567
		c0.216,0,0.858-1.18,1.717-2.037c0.965-0.966,2.358-1.288,3.109-1.932C10.041,6.135,9.29,7.53,7.682,9.138"/>
	<path fill="#FFFFFF" d="M3.177,18.147c-1.287-2.252-1.394-3.969-1.501-5.899c0.107-1.395,0.751-4.504,1.716-4.827
		c-0.322,2.896,0.536,3.11,0.215,5.362c0,0.215-0.321,2.575-0.321,2.682c0.429-0.106,0-2.252,4.505-5.363
		c-0.966,1.717-0.537,2.252-2.252,4.505C3.392,16.645,3.07,18.682,3.177,18.147"/>
	<path fill="#FFFFFF" d="M5,20.399c-0.965,1.394-0.75,2.144-0.965,2.68c-2.252-1.394-4.719-6.541-3.861-9.115
		c0.537,1.931,1.395,2.359,2.038,4.075c0.965,2.466,0.856,3.217,1.501,3.753c-0.214-1.287,0.214-2.789,0.751-3.861
		C5,16.967,5.537,15.786,6.073,15.358C6.395,17.074,5.966,18.468,5,20.399"/>
	<path fill="#FFFFFF" d="M6.931,24.796c0,2.037-0.322,2.897-0.537,4.396c-3.859-1.284-5.897-5.685-5.897-7.935
		c1.18,2.681,2.896,2.681,5.147,6.437c0.214-1.396-0.322-0.217-0.322-3.006c0.107-2.896,0.645-2.896,0.752-4.716
		C6.717,20.72,6.931,23.938,6.931,24.796"/>
	<path fill="#FFFFFF" d="M10.255,30.586c0.322,1.502,0.429,3.219,0.644,4.504c-2.252-0.857-2.789-0.216-5.361-1.82
		c-1.181-0.646-3.325-3.434-3.219-5.361c2.574,2.896,3.11,2.57,4.29,3.645c1.181,0.967,2.038,2.361,3.002,2.147
		c0-0.75-1.93-2.574-1.715-7.401C8.432,26.727,9.827,28.979,10.255,30.586"/>
	<path fill="#FFFFFF" d="M14.545,34.127c0.643,0.963,0.536,1.395,2.252,3.43c-0.43,0.215-2.896,0.859-4.612,0.967
		c-1.073,0-5.041-0.967-6.327-3.647c2.251,1.185,2.251,0.966,5.254,1.608c2.146,0.537,3.646,1.183,4.29,1.072
		c-0.214-0.214-1.715-0.966-2.896-2.467c-1.18-1.501-0.965-3.324-1.93-4.504C11.435,30.264,14.009,33.48,14.545,34.127"/>
	<path fill="#FFFFFF" d="M42.32,5.063c0.537,0.536,1.717,0.965,2.575,2.038c0.322-0.536-0.537-2.146-1.501-3.002
		c-0.75-0.537-2.145-1.716-2.681-1.716C40.498,3.025,41.678,4.205,42.32,5.063"/>
	<path fill="#FFFFFF" d="M44.037,9.138c0.965,0.858,1.931,1.287,3.217,2.896c0.537-1.93,0.43-3.646,0.214-4.825
		c-0.429-1.502-1.179-3.218-2.466-3.647c0.322,0.859,0.643,2.038,0.751,3.647c0.536,2.145,0.964,2.252,0.75,2.573
		c-0.214,0-0.859-1.179-1.716-2.037c-0.966-0.965-2.36-1.287-3.11-1.931C41.785,6.135,42.536,7.53,44.037,9.138"/>
	<path fill="#FFFFFF" d="M48.648,18.147c1.288-2.252,1.396-3.969,1.502-5.899c-0.106-1.395-0.75-4.504-1.716-4.827
		c0.214,2.896-0.537,3.11-0.214,5.362c0,0.215,0.321,2.575,0.321,2.682c-0.321-0.106,0-2.252-4.396-5.363
		c0.965,1.717,0.537,2.252,2.251,4.505C48.434,16.645,48.755,18.682,48.648,18.147"/>
	<path fill="#FFFFFF" d="M46.933,20.399c0.964,1.394,0.75,2.144,0.964,2.68c2.252-1.394,4.826-6.541,3.861-9.115
		c-0.536,1.931-1.394,2.359-1.93,4.075c-0.966,2.466-0.966,3.217-1.501,3.753c0.214-1.287-0.321-2.789-0.751-3.861
		c-0.536-0.965-1.072-2.146-1.608-2.573C45.538,17.074,45.86,18.468,46.933,20.399"/>
	<path fill="#FFFFFF" d="M44.788,24.796c0,2.037,0.429,2.897,0.536,4.396c3.86-1.284,5.898-5.685,5.898-7.935
		c-1.18,2.681-2.896,2.681-5.147,6.437c-0.215-1.396,0.43-0.321,0.43-3.109c-0.108-2.896-0.645-2.896-0.751-4.72
		C45.11,20.72,44.788,23.938,44.788,24.796"/>
	<path fill="#FFFFFF" d="M41.678,30.586c-0.323,1.502-0.429,3.219-0.536,4.504c2.146-0.857,2.788-0.216,5.362-1.82
		c1.18-0.646,3.432-3.434,3.217-5.361c-2.573,2.896-3.11,2.57-4.29,3.646c-1.179,0.967-2.145,2.358-3.003,2.146
		c-0.107-0.75,1.93-2.572,1.717-7.399C43.394,26.727,42,28.979,41.678,30.586"/>
	<path fill="#FFFFFF" d="M37.281,34.127c-0.645,0.963-0.537,1.395-2.253,3.43c0.429,0.215,2.896,0.859,4.611,0.967
		c1.072,0,5.041-0.967,6.22-3.647c-2.252,1.185-2.252,0.966-5.255,1.608c-2.146,0.537-3.646,1.183-4.291,1.072
		c0.215-0.214,1.824-0.966,2.896-2.467c1.18-1.501,0.965-3.324,1.93-4.504C40.391,30.264,37.816,33.48,37.281,34.127"/>
	<path fill="#FFFFFF" d="M20.336,43.455l-0.644-0.319c0,0,4.184-5.043,11.262-4.72c7.078,0.428,6.542,2.145,10.4,1.716
		c0.431,0-0.319,0.535-0.319,0.535s-3.647,1.394-8.259-0.215C28.165,39.059,25.163,38.093,20.336,43.455"/>
	<path fill="#FFFFFF" d="M31.597,43.455l0.644-0.319c0,0-4.075-5.043-11.153-4.72c-7.078,0.428-6.649,2.145-10.403,1.716
		c-0.429,0,0.322,0.535,0.322,0.535s3.646,1.394,8.258-0.215C23.768,39.059,26.771,38.093,31.597,43.455"/>
	<path fill="#FFFFFF" d="M77.16,16.902c0,5.287-2.816,7.753-8.571,7.753s-8.573-2.467-8.573-7.753V5.276h5.754V15.61
		c0,1.88,0,4.346,2.817,4.346c2.701,0,2.701-2.35,2.701-4.346V5.276h5.754L77.16,16.902"/>
	<polygon fill="#FFFFFF" points="80.681,5.276 86.555,5.276 91.957,15.374 92.073,15.374 92.073,5.276 97.473,5.276 97.473,24.181 
		91.84,24.181 86.086,13.849 86.086,13.849 86.086,24.181 80.681,24.181 	"/>
	<polygon fill="#FFFFFF" points="101.115,5.276 106.869,5.276 106.869,11.852 112.268,11.852 112.268,5.276 118.025,5.276 
		118.025,24.181 112.268,24.181 112.268,16.668 106.869,16.668 106.869,24.181 101.115,24.181 	"/>
	<g>
		<path fill="#FFFFFF" d="M132.821,12.323c-0.116-0.706-0.588-2.818-3.054-2.818c-2.7,0-3.522,2.701-3.522,5.285
			c0,2.465,0.938,5.285,3.522,5.285c1.88,0,2.702-1.411,3.054-3.171h5.635c0,3.758-3.051,7.867-8.571,7.867
			c-6.104,0-9.509-4.344-9.509-9.98c0-5.988,3.758-9.981,9.509-9.981c5.169,0,7.988,2.817,8.458,7.515H132.821L132.821,12.323z"/>
		<path fill="#FFFFFF" d="M140.922,24.181h5.755v-6.69h3.052c2.35,0,2.465,1.878,2.584,3.639c0.115,0.939,0.231,1.881,0.471,2.936
			h5.751c-0.469-0.938-0.584-3.17-0.584-4.107c-0.236-2.349-1.174-4.111-2.702-4.697c1.878-0.705,2.817-2.82,2.817-4.813
			c0-3.641-2.817-5.402-6.109-5.402h-11.034V24.181 M146.677,9.74h2.7c2.23,0,2.816,0.706,2.816,1.877
			c0,1.644-1.408,1.879-2.583,1.879h-3.05V9.738L146.677,9.74L146.677,9.74z"/>
	</g>
	<path fill="#FFFFFF" d="M60.092,31.284v-1.171h4.886v1.171h-1.789v4.975h-1.334v-4.975H60.092z"/>
	<path fill="#FFFFFF" d="M65.505,30.113h1.173v2.18h0.025c0.097-0.125,0.2-0.227,0.307-0.312c0.107-0.081,0.218-0.145,0.332-0.193
		c0.114-0.046,0.23-0.081,0.35-0.101c0.123-0.017,0.246-0.024,0.373-0.024c0.329,0,0.598,0.046,0.808,0.135
		c0.211,0.087,0.378,0.213,0.502,0.373c0.123,0.166,0.207,0.359,0.253,0.586c0.047,0.23,0.072,0.481,0.072,0.759v2.743h-1.233
		v-2.518c0-0.368-0.059-0.647-0.178-0.831c-0.12-0.188-0.321-0.28-0.604-0.28c-0.164,0-0.305,0.024-0.424,0.076
		c-0.118,0.048-0.217,0.124-0.292,0.229c-0.077,0.101-0.133,0.238-0.171,0.397c-0.038,0.163-0.056,0.358-0.056,0.585v2.342h-1.236
		L65.505,30.113L65.505,30.113z"/>
	<path fill="#FFFFFF" d="M71.578,34.361c0.019,0.389,0.123,0.677,0.312,0.862s0.454,0.277,0.796,0.277
		c0.123,0,0.242-0.019,0.354-0.05c0.112-0.034,0.209-0.081,0.296-0.138c0.087-0.054,0.16-0.115,0.218-0.188
		c0.059-0.071,0.096-0.142,0.115-0.214h1.096c-0.09,0.27-0.202,0.501-0.336,0.69c-0.137,0.194-0.292,0.351-0.471,0.476
		c-0.179,0.123-0.38,0.212-0.598,0.268c-0.221,0.063-0.456,0.093-0.711,0.093c-0.357,0-0.677-0.063-0.96-0.174
		c-0.285-0.12-0.527-0.28-0.723-0.489c-0.201-0.213-0.354-0.463-0.458-0.753c-0.107-0.291-0.159-0.611-0.159-0.963
		c0-0.335,0.056-0.651,0.169-0.938c0.112-0.292,0.268-0.541,0.471-0.755c0.202-0.214,0.443-0.384,0.725-0.503
		c0.285-0.122,0.597-0.186,0.939-0.186c0.256,0,0.49,0.036,0.701,0.104c0.214,0.068,0.404,0.165,0.571,0.288
		c0.167,0.119,0.312,0.269,0.436,0.433c0.122,0.167,0.224,0.352,0.3,0.551c0.077,0.198,0.13,0.409,0.162,0.632
		c0.028,0.221,0.038,0.45,0.022,0.681H71.58v-0.003H71.578z M73.668,33.576c-0.057-0.314-0.172-0.553-0.343-0.72
		c-0.173-0.166-0.412-0.25-0.713-0.25c-0.133,0-0.249,0.016-0.348,0.048c-0.101,0.033-0.189,0.073-0.264,0.127
		c-0.076,0.054-0.139,0.114-0.189,0.179c-0.054,0.067-0.097,0.138-0.129,0.208c-0.034,0.073-0.057,0.146-0.074,0.213
		c-0.017,0.072-0.026,0.137-0.031,0.195H73.668L73.668,33.576z"/>
	<path fill="#FFFFFF" d="M82.988,33.954c0,0.403-0.055,0.755-0.17,1.057c-0.115,0.299-0.282,0.551-0.5,0.753
		c-0.217,0.197-0.485,0.348-0.803,0.448c-0.315,0.098-0.675,0.146-1.082,0.146c-0.422,0-0.799-0.044-1.129-0.137
		c-0.331-0.094-0.609-0.239-0.834-0.436c-0.226-0.196-0.399-0.445-0.519-0.747c-0.119-0.304-0.178-0.664-0.178-1.082v-3.843h1.325
		v3.843c0,0.422,0.113,0.745,0.338,0.966c0.224,0.218,0.555,0.331,0.997,0.331c0.41,0,0.716-0.113,0.923-0.331
		c0.209-0.221,0.313-0.544,0.313-0.966v-3.843h1.321v3.841H82.988z"/>
	<path fill="#FFFFFF" d="M84.135,30.113h1.322l2.595,4.122h0.013v-4.122h1.271v6.146h-1.335l-2.582-4.117h-0.011v4.117h-1.273
		V30.113z"/>
	<path fill="#FFFFFF" d="M95.608,30.113c0.323,0,0.615,0.039,0.867,0.122c0.255,0.078,0.473,0.193,0.646,0.341
		s0.309,0.33,0.401,0.547c0.091,0.211,0.139,0.456,0.139,0.726c0,0.153-0.015,0.3-0.03,0.439c-0.02,0.137-0.052,0.268-0.1,0.387
		c-0.047,0.12-0.113,0.233-0.189,0.333c-0.081,0.102-0.18,0.189-0.299,0.269c0.092,0.07,0.167,0.144,0.225,0.229
		c0.059,0.083,0.103,0.175,0.138,0.27c0.034,0.1,0.061,0.203,0.08,0.311c0.021,0.107,0.037,0.221,0.05,0.336
		c0.009,0.176,0.016,0.347,0.02,0.51c0.006,0.16,0.019,0.322,0.047,0.473c0.028,0.151,0.072,0.295,0.138,0.442
		c0.063,0.142,0.157,0.277,0.289,0.415h-1.423c-0.092-0.111-0.159-0.229-0.201-0.354c-0.042-0.122-0.069-0.248-0.088-0.388
		c-0.02-0.139-0.033-0.279-0.04-0.427c-0.009-0.145-0.023-0.297-0.05-0.456c-0.019-0.099-0.037-0.198-0.061-0.296
		c-0.023-0.102-0.061-0.187-0.107-0.265c-0.049-0.076-0.114-0.138-0.197-0.186c-0.085-0.051-0.193-0.073-0.326-0.073h-1.578v2.443
		H92.62v-6.147H95.608L95.608,30.113z M95.254,32.741c0.139,0,0.273-0.012,0.403-0.035c0.129-0.029,0.246-0.07,0.348-0.135
		c0.101-0.064,0.183-0.145,0.243-0.248c0.061-0.1,0.093-0.224,0.093-0.372c0-0.102-0.02-0.195-0.049-0.282
		c-0.033-0.089-0.079-0.168-0.146-0.231c-0.063-0.067-0.146-0.119-0.246-0.159c-0.097-0.04-0.211-0.058-0.344-0.058h-1.6v1.521
		H95.254L95.254,32.741z"/>
	<path fill="#FFFFFF" d="M99.478,34.361c0.018,0.389,0.12,0.677,0.309,0.862c0.192,0.186,0.455,0.277,0.796,0.277
		c0.126,0,0.245-0.019,0.356-0.05c0.111-0.034,0.209-0.081,0.297-0.138c0.085-0.054,0.158-0.115,0.215-0.188
		c0.06-0.071,0.098-0.142,0.115-0.214h1.095c-0.089,0.27-0.198,0.501-0.335,0.69c-0.134,0.194-0.293,0.351-0.475,0.476
		c-0.177,0.123-0.376,0.212-0.596,0.268c-0.219,0.063-0.459,0.093-0.71,0.093c-0.357,0-0.675-0.063-0.962-0.174
		c-0.282-0.12-0.522-0.28-0.723-0.489c-0.199-0.213-0.353-0.463-0.457-0.753c-0.11-0.291-0.162-0.611-0.162-0.963
		c0-0.335,0.057-0.651,0.168-0.938c0.113-0.292,0.267-0.541,0.473-0.755c0.201-0.214,0.443-0.384,0.728-0.503
		c0.285-0.122,0.594-0.186,0.936-0.186c0.254,0,0.491,0.036,0.702,0.104c0.213,0.068,0.402,0.165,0.57,0.288
		c0.167,0.119,0.313,0.269,0.437,0.433c0.12,0.167,0.221,0.352,0.296,0.551c0.079,0.198,0.133,0.409,0.162,0.632
		c0.03,0.221,0.038,0.45,0.023,0.681h-3.258V34.361L99.478,34.361z M101.566,33.576c-0.056-0.314-0.171-0.553-0.346-0.72
		c-0.17-0.166-0.407-0.25-0.709-0.25c-0.134,0-0.25,0.016-0.348,0.048c-0.1,0.033-0.188,0.073-0.264,0.127
		c-0.073,0.054-0.139,0.114-0.19,0.179c-0.052,0.067-0.097,0.138-0.128,0.208c-0.033,0.073-0.058,0.146-0.075,0.213
		c-0.019,0.072-0.022,0.137-0.025,0.195H101.566L101.566,33.576z"/>
	<path fill="#FFFFFF" d="M103.057,32.671v-0.883h0.563v-0.504c0-0.202,0.031-0.378,0.096-0.532c0.063-0.157,0.157-0.284,0.279-0.392
		c0.124-0.104,0.274-0.186,0.451-0.239c0.18-0.055,0.391-0.081,0.622-0.081c0.074,0,0.171,0.009,0.278,0.026
		c0.112,0.018,0.233,0.053,0.364,0.109v0.922c-0.051-0.02-0.107-0.032-0.168-0.045c-0.062-0.013-0.117-0.021-0.171-0.022
		c-0.055-0.003-0.105-0.007-0.146-0.011c-0.046,0-0.081,0-0.106,0c-0.082,0-0.148,0.024-0.196,0.078
		c-0.048,0.048-0.071,0.127-0.071,0.227v0.466h0.708v0.884h-0.708v3.589h-1.231v-3.589h-0.563V32.671L103.057,32.671z"/>
	<path fill="#FFFFFF" d="M110.324,36.259h-1.171v-0.504h-0.026c-0.081,0.12-0.175,0.221-0.282,0.301
		c-0.104,0.078-0.214,0.144-0.336,0.193c-0.116,0.05-0.239,0.083-0.366,0.104c-0.129,0.019-0.252,0.029-0.377,0.029
		c-0.329,0-0.599-0.046-0.81-0.133c-0.211-0.089-0.375-0.214-0.5-0.376c-0.124-0.162-0.208-0.358-0.255-0.587
		c-0.05-0.228-0.07-0.478-0.07-0.751v-2.75h1.232v2.521c0,0.185,0.015,0.349,0.043,0.487c0.029,0.137,0.074,0.251,0.136,0.343
		c0.061,0.092,0.142,0.162,0.243,0.207c0.1,0.048,0.218,0.07,0.359,0.07c0.165,0,0.305-0.024,0.423-0.074
		c0.12-0.05,0.217-0.126,0.297-0.229c0.078-0.102,0.133-0.234,0.172-0.397c0.036-0.16,0.056-0.357,0.056-0.584v-2.343h1.235
		L110.324,36.259L110.324,36.259L110.324,36.259z"/>
	<path fill="#FFFFFF" d="M115.487,36.184c0,0.126-0.01,0.27-0.03,0.421c-0.022,0.153-0.062,0.304-0.117,0.459
		c-0.061,0.148-0.142,0.298-0.248,0.445c-0.108,0.141-0.248,0.269-0.421,0.375c-0.172,0.112-0.385,0.2-0.634,0.266
		c-0.249,0.066-0.547,0.1-0.891,0.1c-0.147,0-0.297-0.012-0.448-0.034c-0.151-0.026-0.297-0.063-0.438-0.115
		c-0.142-0.051-0.278-0.114-0.403-0.196c-0.128-0.082-0.238-0.173-0.337-0.287c-0.098-0.107-0.179-0.237-0.24-0.382
		c-0.063-0.14-0.097-0.303-0.109-0.479h1.221c0.028,0.118,0.072,0.218,0.131,0.298c0.062,0.084,0.132,0.147,0.212,0.199
		c0.081,0.051,0.173,0.086,0.273,0.11c0.097,0.022,0.204,0.033,0.315,0.033c0.17,0,0.317-0.029,0.443-0.088
		c0.123-0.06,0.225-0.142,0.306-0.245c0.081-0.103,0.142-0.227,0.18-0.369c0.036-0.145,0.057-0.299,0.053-0.474v-0.516
		c-0.094,0.141-0.19,0.249-0.293,0.333c-0.104,0.078-0.211,0.146-0.324,0.191c-0.112,0.046-0.229,0.071-0.35,0.087
		c-0.121,0.014-0.248,0.02-0.382,0.02c-0.342,0-0.638-0.061-0.883-0.187c-0.244-0.121-0.442-0.29-0.604-0.503
		c-0.158-0.215-0.269-0.464-0.343-0.75c-0.073-0.285-0.11-0.589-0.11-0.911c0-0.206,0.02-0.405,0.059-0.595
		c0.036-0.193,0.094-0.377,0.165-0.547c0.076-0.172,0.166-0.331,0.279-0.476c0.107-0.143,0.236-0.269,0.38-0.374
		c0.145-0.105,0.306-0.186,0.484-0.243c0.177-0.061,0.374-0.09,0.588-0.09c0.144,0,0.279,0.01,0.402,0.031
		c0.125,0.021,0.24,0.058,0.347,0.104c0.112,0.048,0.212,0.109,0.309,0.189c0.095,0.079,0.188,0.177,0.278,0.295v-0.492h1.181v4.394
		l0,0V36.184z M113.261,35.376c0.173,0,0.327-0.035,0.458-0.112c0.131-0.071,0.241-0.171,0.325-0.288
		c0.084-0.123,0.15-0.259,0.194-0.414c0.042-0.159,0.063-0.321,0.063-0.481c0-0.19-0.018-0.376-0.051-0.548
		c-0.035-0.177-0.095-0.332-0.173-0.468c-0.082-0.131-0.189-0.24-0.322-0.319c-0.133-0.075-0.298-0.116-0.496-0.116
		c-0.179,0-0.331,0.036-0.455,0.107c-0.129,0.073-0.235,0.175-0.317,0.296c-0.079,0.123-0.14,0.261-0.183,0.422
		c-0.038,0.161-0.056,0.325-0.056,0.5c0,0.171,0.014,0.339,0.045,0.512c0.033,0.169,0.092,0.32,0.168,0.458
		c0.078,0.133,0.182,0.246,0.312,0.329C112.904,35.335,113.064,35.376,113.261,35.376z"/>
	<path fill="#FFFFFF" d="M117.374,34.361c0.019,0.389,0.121,0.677,0.313,0.862c0.188,0.186,0.452,0.277,0.794,0.277
		c0.125,0,0.243-0.019,0.354-0.05c0.113-0.034,0.212-0.081,0.297-0.138c0.089-0.054,0.16-0.115,0.219-0.188
		c0.059-0.071,0.097-0.142,0.113-0.214h1.096c-0.088,0.27-0.2,0.501-0.335,0.69c-0.135,0.194-0.293,0.351-0.47,0.476
		c-0.181,0.123-0.379,0.212-0.602,0.268c-0.219,0.063-0.456,0.093-0.708,0.093c-0.358,0-0.682-0.063-0.963-0.174
		c-0.285-0.12-0.523-0.28-0.724-0.489c-0.198-0.213-0.353-0.463-0.459-0.753c-0.105-0.291-0.159-0.611-0.159-0.963
		c0-0.335,0.056-0.651,0.168-0.938c0.11-0.292,0.27-0.541,0.469-0.755c0.205-0.214,0.445-0.384,0.729-0.503
		c0.283-0.122,0.595-0.186,0.939-0.186c0.254,0,0.488,0.036,0.699,0.104c0.215,0.068,0.403,0.165,0.569,0.288
		c0.17,0.119,0.315,0.269,0.437,0.433c0.125,0.167,0.225,0.352,0.301,0.551c0.075,0.198,0.129,0.409,0.16,0.632
		c0.029,0.221,0.039,0.45,0.023,0.681h-3.259L117.374,34.361L117.374,34.361z M119.466,33.576c-0.058-0.314-0.172-0.553-0.346-0.72
		c-0.171-0.166-0.409-0.25-0.711-0.25c-0.13,0-0.248,0.016-0.35,0.048c-0.098,0.033-0.186,0.073-0.261,0.127
		c-0.074,0.054-0.138,0.114-0.188,0.179c-0.056,0.067-0.097,0.138-0.13,0.208c-0.032,0.073-0.058,0.146-0.071,0.213
		c-0.02,0.072-0.027,0.137-0.032,0.195H119.466L119.466,33.576z"/>
	<path fill="#FFFFFF" d="M122.299,34.361c0.021,0.389,0.123,0.677,0.314,0.862c0.188,0.186,0.453,0.277,0.795,0.277
		c0.122,0,0.244-0.019,0.354-0.05c0.114-0.034,0.21-0.081,0.297-0.138c0.086-0.054,0.16-0.115,0.216-0.188
		c0.06-0.071,0.098-0.142,0.115-0.214h1.093c-0.088,0.27-0.199,0.501-0.335,0.69c-0.135,0.194-0.293,0.351-0.472,0.476
		c-0.177,0.123-0.376,0.212-0.596,0.268c-0.221,0.063-0.457,0.093-0.712,0.093c-0.358,0-0.678-0.063-0.961-0.174
		c-0.284-0.12-0.527-0.28-0.725-0.489c-0.197-0.213-0.35-0.463-0.46-0.753c-0.104-0.291-0.156-0.611-0.156-0.963
		c0-0.335,0.054-0.651,0.166-0.938c0.108-0.292,0.268-0.541,0.472-0.755c0.201-0.214,0.442-0.384,0.724-0.503
		c0.285-0.122,0.598-0.186,0.94-0.186c0.255,0,0.488,0.036,0.703,0.104c0.213,0.068,0.4,0.165,0.566,0.288
		c0.169,0.119,0.313,0.269,0.437,0.433c0.121,0.167,0.223,0.352,0.3,0.551c0.075,0.198,0.129,0.409,0.159,0.632
		c0.031,0.221,0.039,0.45,0.022,0.681h-3.258L122.299,34.361L122.299,34.361z M124.392,33.576c-0.058-0.314-0.173-0.553-0.341-0.72
		c-0.175-0.166-0.412-0.25-0.716-0.25c-0.135,0-0.249,0.016-0.348,0.048c-0.103,0.033-0.188,0.073-0.262,0.127
		c-0.077,0.054-0.141,0.114-0.192,0.179c-0.054,0.067-0.096,0.138-0.127,0.208c-0.033,0.073-0.058,0.146-0.073,0.213
		c-0.019,0.072-0.025,0.137-0.033,0.195H124.392L124.392,33.576z"/>
	<path fill="#FFFFFF" d="M130.26,30.113h1.436l2.293,6.146h-1.425l-0.465-1.372h-2.304l-0.476,1.372h-1.398L130.26,30.113z
		 M130.147,33.879h1.599l-0.779-2.255h-0.013L130.147,33.879z"/>
	<path fill="#FFFFFF" d="M138.675,36.184c0,0.126-0.013,0.27-0.03,0.421c-0.022,0.153-0.063,0.304-0.12,0.459
		c-0.057,0.148-0.141,0.298-0.247,0.445c-0.105,0.141-0.246,0.269-0.418,0.375c-0.172,0.112-0.387,0.2-0.637,0.266
		c-0.25,0.066-0.549,0.1-0.891,0.1c-0.15,0-0.297-0.012-0.445-0.034c-0.153-0.026-0.299-0.063-0.442-0.115
		c-0.143-0.051-0.275-0.114-0.404-0.196c-0.123-0.082-0.238-0.173-0.335-0.287c-0.097-0.107-0.175-0.237-0.24-0.382
		c-0.061-0.14-0.097-0.303-0.111-0.479h1.222c0.028,0.118,0.071,0.218,0.135,0.298c0.058,0.084,0.128,0.147,0.21,0.199
		c0.082,0.051,0.171,0.086,0.271,0.11c0.1,0.022,0.206,0.033,0.316,0.033c0.171,0,0.318-0.029,0.442-0.088
		c0.126-0.06,0.229-0.142,0.311-0.245c0.078-0.103,0.14-0.227,0.176-0.369c0.037-0.145,0.058-0.299,0.056-0.474v-0.516
		c-0.095,0.141-0.194,0.249-0.295,0.333c-0.105,0.078-0.21,0.146-0.325,0.191c-0.11,0.046-0.229,0.071-0.349,0.087
		c-0.124,0.014-0.25,0.02-0.381,0.02c-0.344,0-0.636-0.061-0.884-0.187c-0.244-0.121-0.444-0.29-0.602-0.503
		c-0.156-0.215-0.271-0.464-0.343-0.75c-0.073-0.285-0.111-0.589-0.111-0.911c0-0.206,0.021-0.405,0.06-0.595
		c0.038-0.193,0.092-0.377,0.167-0.547c0.075-0.172,0.166-0.331,0.276-0.476c0.108-0.143,0.237-0.269,0.38-0.374
		s0.305-0.186,0.484-0.243c0.178-0.061,0.372-0.09,0.589-0.09c0.141,0,0.275,0.01,0.398,0.031c0.126,0.021,0.241,0.058,0.35,0.104
		c0.109,0.047,0.209,0.109,0.309,0.189c0.097,0.079,0.188,0.177,0.277,0.295v-0.492h1.184L138.675,36.184L138.675,36.184
		L138.675,36.184z M136.444,35.376c0.178,0,0.331-0.035,0.462-0.112c0.131-0.071,0.241-0.171,0.326-0.288
		c0.087-0.123,0.149-0.259,0.192-0.414c0.044-0.159,0.066-0.321,0.066-0.481c0-0.19-0.019-0.376-0.054-0.548
		c-0.033-0.177-0.092-0.332-0.171-0.468c-0.082-0.131-0.19-0.24-0.325-0.319c-0.133-0.075-0.296-0.116-0.496-0.116
		c-0.176,0-0.328,0.036-0.455,0.107c-0.128,0.073-0.232,0.175-0.314,0.296c-0.08,0.123-0.142,0.261-0.181,0.422
		c-0.041,0.162-0.06,0.325-0.06,0.5c0,0.171,0.018,0.339,0.049,0.512c0.034,0.169,0.089,0.32,0.166,0.458
		c0.077,0.133,0.181,0.246,0.312,0.329C136.089,35.335,136.254,35.376,136.444,35.376z"/>
	<path fill="#FFFFFF" d="M140.561,34.361c0.019,0.389,0.126,0.677,0.314,0.862s0.451,0.277,0.794,0.277
		c0.124,0,0.244-0.019,0.354-0.05c0.113-0.034,0.209-0.081,0.297-0.138c0.085-0.054,0.157-0.115,0.218-0.188
		c0.057-0.071,0.097-0.142,0.113-0.214h1.096c-0.09,0.27-0.202,0.501-0.337,0.69c-0.134,0.194-0.293,0.351-0.47,0.476
		c-0.18,0.123-0.38,0.212-0.599,0.268c-0.222,0.063-0.46,0.093-0.712,0.093c-0.357,0-0.68-0.063-0.961-0.174
		c-0.285-0.12-0.527-0.28-0.726-0.489c-0.199-0.213-0.352-0.463-0.458-0.753c-0.106-0.291-0.159-0.611-0.159-0.963
		c0-0.335,0.058-0.651,0.168-0.938c0.112-0.292,0.269-0.541,0.473-0.755c0.2-0.214,0.441-0.384,0.728-0.503
		c0.281-0.122,0.596-0.186,0.938-0.186c0.252,0,0.486,0.036,0.702,0.104c0.21,0.068,0.4,0.165,0.565,0.288
		c0.169,0.119,0.313,0.269,0.437,0.433c0.123,0.167,0.223,0.352,0.3,0.551c0.076,0.198,0.131,0.409,0.161,0.632
		c0.03,0.221,0.039,0.45,0.023,0.681h-3.261V34.361L140.561,34.361z M142.652,33.576c-0.057-0.314-0.171-0.553-0.344-0.72
		c-0.172-0.166-0.41-0.25-0.712-0.25c-0.131,0-0.248,0.016-0.348,0.048c-0.103,0.033-0.188,0.073-0.262,0.127
		c-0.076,0.054-0.141,0.114-0.19,0.179c-0.055,0.067-0.096,0.138-0.129,0.208c-0.031,0.073-0.058,0.146-0.072,0.213
		c-0.021,0.072-0.028,0.137-0.034,0.195H142.652L142.652,33.576z"/>
	<path fill="#FFFFFF" d="M144.479,31.788h1.172v0.504h0.022c0.1-0.126,0.201-0.227,0.309-0.311c0.106-0.081,0.215-0.146,0.33-0.193
		c0.114-0.05,0.231-0.081,0.353-0.102c0.121-0.018,0.245-0.024,0.372-0.024c0.327,0,0.598,0.045,0.81,0.135
		c0.208,0.085,0.378,0.21,0.497,0.372c0.125,0.167,0.21,0.36,0.255,0.587c0.05,0.229,0.072,0.479,0.072,0.757v2.746h-1.231V33.74
		c0-0.37-0.063-0.649-0.18-0.833c-0.118-0.188-0.322-0.278-0.604-0.278c-0.162,0-0.307,0.021-0.424,0.075
		c-0.117,0.049-0.217,0.124-0.295,0.226c-0.076,0.105-0.133,0.238-0.169,0.4c-0.038,0.161-0.059,0.356-0.059,0.585v2.342h-1.235
		v-4.471h0.002v0.002H144.479z"/>
	<path fill="#FFFFFF" d="M152.194,32.912c-0.127-0.144-0.312-0.217-0.559-0.217c-0.206,0-0.375,0.041-0.513,0.118
		c-0.132,0.08-0.24,0.184-0.322,0.317c-0.082,0.129-0.139,0.276-0.171,0.441c-0.034,0.165-0.051,0.334-0.051,0.51
		c0,0.153,0.018,0.306,0.051,0.457c0.037,0.153,0.09,0.289,0.168,0.411c0.079,0.113,0.18,0.216,0.302,0.29
		c0.125,0.073,0.274,0.111,0.451,0.111c0.13,0,0.249-0.021,0.361-0.067c0.111-0.044,0.206-0.109,0.288-0.199
		c0.082-0.087,0.15-0.195,0.202-0.321c0.053-0.131,0.086-0.279,0.104-0.445h1.234c-0.065,0.323-0.155,0.612-0.272,0.864
		c-0.12,0.254-0.268,0.475-0.45,0.648c-0.182,0.176-0.392,0.307-0.637,0.402c-0.243,0.091-0.519,0.137-0.83,0.137
		c-0.368,0-0.691-0.054-0.971-0.168c-0.281-0.114-0.513-0.275-0.698-0.475c-0.186-0.205-0.323-0.449-0.419-0.728
		c-0.095-0.28-0.141-0.586-0.141-0.922c0-0.334,0.045-0.646,0.134-0.938c0.091-0.293,0.229-0.55,0.416-0.765
		c0.186-0.217,0.42-0.388,0.701-0.513c0.284-0.126,0.617-0.189,1.001-0.189c0.27,0,0.525,0.038,0.766,0.115
		c0.241,0.078,0.454,0.195,0.642,0.35c0.187,0.155,0.339,0.353,0.461,0.59c0.124,0.235,0.201,0.515,0.234,0.834h-1.236
		C152.404,33.278,152.321,33.058,152.194,32.912z"/>
	<path fill="#FFFFFF" d="M156.621,36.988c-0.064,0.184-0.143,0.339-0.231,0.474c-0.09,0.13-0.2,0.236-0.323,0.319
		s-0.27,0.147-0.435,0.184c-0.165,0.039-0.354,0.058-0.571,0.058c-0.129,0-0.254-0.006-0.379-0.015
		c-0.127-0.012-0.255-0.022-0.39-0.033v-0.981c0.12,0.011,0.241,0.023,0.364,0.039c0.122,0.014,0.247,0.019,0.367,0.012
		c0.108-0.015,0.201-0.056,0.275-0.122c0.073-0.068,0.128-0.152,0.166-0.246c0.036-0.096,0.058-0.196,0.06-0.308
		c0.002-0.104-0.016-0.205-0.049-0.295l-1.575-4.283h1.296l1.033,3.198h0.016l1.007-3.198h1.262L156.621,36.988z"/>
</g>
</svg>
